<?xml version="1.0" encoding="UTF-8"?><svg xmlns="http://www.w3.org/2000/svg" viewBox="0 0 222.36 60.6"><defs><style>.c,.d{fill:#ffd447;}.d{font-family:DemielaFree-Medium, Demiela Free;font-size:24px;}.e{fill:#512f92;}.f{fill:none;}.g{fill:#0e7f40;}</style></defs><g id="a"><path class="g" d="M27.84,17.42c-.76-1.13-1.66-2.07-2.72-2.83s-2.21-1.36-3.48-1.82-2.61-.78-4.04-.97-2.91-.29-4.43-.29c-1.09,0-2.2,.04-3.32,.12s-2.23,.19-3.35,.33-2.22,.3-3.31,.48-2.16,.37-3.19,.56l.15,1.3c1.01-.15,1.83-.22,2.48-.22,.55,0,.98,.06,1.3,.18s.56,.29,.72,.53,.26,.53,.3,.88,.06,.76,.06,1.23c0,2.3-.01,4.53-.04,6.67s-.07,4.17-.12,6.1-.11,3.73-.18,5.41-.14,3.2-.21,4.56-.15,2.57-.23,3.6-.15,1.86-.22,2.48l.26,.03,2.9-.35c1.03,.26,2.01,.46,2.96,.59s1.88,.19,2.8,.19c1.78,0,3.44-.23,4.99-.68s2.96-1.1,4.25-1.93,2.43-1.84,3.43-3.01,1.85-2.48,2.54-3.91,1.22-2.99,1.58-4.65,.54-3.41,.54-5.22c0-2.02-.21-3.8-.63-5.35s-1.01-2.88-1.77-4.01Zm-2.04,14.73c-.2,1.37-.52,2.66-.95,3.87s-1,2.32-1.68,3.34-1.52,1.89-2.5,2.63-2.12,1.31-3.41,1.72-2.76,.62-4.4,.62c-.79,0-1.59-.04-2.41-.12s-1.71-.25-2.67-.51c.06-.71,.12-1.64,.18-2.78s.12-2.4,.18-3.8,.12-2.88,.18-4.45,.11-3.15,.16-4.74,.1-3.14,.14-4.66,.08-2.92,.11-4.2,.05-2.41,.07-3.38,.03-1.69,.04-2.18c.64-.05,1.28-.09,1.9-.12s1.25-.04,1.86-.04c2.48,0,4.58,.36,6.3,1.08s3.11,1.72,4.18,3.01,1.84,2.83,2.31,4.61,.71,3.75,.71,5.9c0,1.44-.1,2.84-.3,4.2Z"/><path class="e" d="M94.6,45.15c-.2-.72-.47-1.37-.82-1.97s-.76-1.14-1.23-1.63-.99-.94-1.54-1.36-1.14-.81-1.75-1.18c-.61-.37-1.22-.73-1.84-1.07-.6-.35-1.19-.69-1.77-1.04s-1.14-.71-1.67-1.1c-.53-.38-1.02-.79-1.46-1.22-.36-.35-.67-.74-.96-1.15-.07-.1-.14-.19-.21-.29-.25-.41-.45-.85-.62-1.32-.05-.14-.11-.27-.15-.41-.19-.63-.28-1.32-.28-2.09,0-.95,.16-1.82,.48-2.6,.23-.56,.54-1.04,.89-1.49,.14-.19,.28-.38,.44-.55,.57-.57,1.24-1.02,2.01-1.34,.26-.11,.53-.19,.81-.26,.54-.14,1.11-.22,1.71-.22,.9,0,1.72,.13,2.45,.4s1.37,.67,1.89,1.2c.52,.53,.93,1.19,1.22,1.99s.43,1.71,.43,2.75c0,.35-.01,.71-.04,1.09l1.48,.08c.04-.77,.07-1.5,.1-2.19s.05-1.33,.07-1.91c.01-.58,.03-1.11,.04-1.56,0-.46,.01-.84,.01-1.14,0-.28-.1-.55-.31-.81-.21-.25-.48-.48-.82-.69-.34-.21-.74-.4-1.18-.56-.44-.16-.91-.3-1.4-.42s-.98-.2-1.46-.26c-.49-.06-.95-.09-1.38-.09-.94,0-1.85,.11-2.75,.34-.75,.19-1.45,.47-2.13,.81-.13,.07-.27,.12-.39,.19-.79,.44-1.51,.97-2.17,1.6-.2,.19-.37,.41-.56,.61-.42,.48-.81,.98-1.14,1.54-.47,.81-.84,1.69-1.11,2.65-.2,.73-.3,1.53-.35,2.35-.01,.26-.05,.5-.05,.77,0,.66,.07,1.26,.18,1.84,.04,.2,.07,.42,.12,.61,.2,.74,.47,1.41,.82,2.02s.76,1.17,1.24,1.67c.48,.5,1,.97,1.55,1.4s1.14,.84,1.75,1.22c.61,.38,1.22,.75,1.84,1.11,.59,.35,1.16,.69,1.73,1.03s1.11,.7,1.62,1.07,.99,.77,1.42,1.19,.81,.88,1.13,1.38c.32,.5,.57,1.05,.75,1.64s.27,1.25,.27,1.97c0,1.13-.2,2.12-.59,2.98-.39,.86-.92,1.58-1.58,2.15-.66,.58-1.42,1.01-2.29,1.3-.87,.29-1.79,.43-2.75,.43s-1.84-.12-2.62-.36c-.78-.24-1.44-.62-1.99-1.14-.55-.53-.98-1.21-1.27-2.04s-.45-1.85-.45-3.05c0-.23,0-.46,.01-.69s.03-.47,.06-.73l-1.48-.08c-.1,1.81-.17,3.37-.21,4.69s-.07,2.33-.07,3.03c0,.32,.18,.62,.55,.92s.87,.57,1.51,.8c.64,.23,1.38,.42,2.23,.56s1.76,.21,2.72,.21c.73,0,1.53-.08,2.39-.23,.86-.15,1.72-.4,2.58-.75s1.69-.81,2.48-1.37,1.5-1.27,2.12-2.09,1.11-1.8,1.47-2.91,.55-2.39,.55-3.84c0-.87-.1-1.67-.3-2.38Z"/><path class="e" d="M118.91,56.84c-.55,.11-1.07,.17-1.58,.17-.35,0-.65-.04-.89-.12-.24-.08-.44-.24-.59-.46-.15-.22-.25-.53-.32-.91s-.09-.88-.09-1.5c0-.35,.02-.76,.05-1.24,.03-.48,.08-.99,.12-1.52s.1-1.08,.17-1.63,.12-1.08,.17-1.57,.09-.95,.12-1.36,.05-.73,.05-.96c0-.78-.12-1.45-.35-2.01-.23-.56-.55-1.01-.95-1.37s-.85-.62-1.35-.78-1.04-.25-1.58-.25c-.79,0-1.62,.19-2.49,.58s-1.74,1.01-2.62,1.87-1.73,1.98-2.58,3.37-1.64,3.07-2.39,5.06h-.09c.1-1.12,.19-2.16,.27-3.12,.08-.96,.16-1.89,.24-2.78,.08-.89,.16-1.77,.23-2.64,.08-.87,.16-1.75,.26-2.66s.2-1.86,.31-2.85,.24-2.06,.38-3.2,.3-2.39,.48-3.73,.38-2.81,.6-4.42c-.64-.25-1.26-.38-1.85-.38-.27,0-.54,.02-.79,.06s-.48,.1-.68,.18-.36,.19-.49,.33-.2,.3-.21,.49c-.08,1.23-.16,2.51-.25,3.86-.09,1.34-.18,2.72-.27,4.12s-.19,2.83-.29,4.26-.19,2.87-.29,4.28c-.09,1.42-.19,2.81-.28,4.17s-.18,2.68-.26,3.93-.16,2.45-.23,3.57-.14,2.14-.2,3.07h.23l3.12-.29c.08-1.16,.27-2.33,.57-3.49s.68-2.28,1.14-3.34c.46-1.07,.98-2.06,1.55-2.97s1.17-1.71,1.79-2.38c.62-.67,1.25-1.2,1.88-1.59s1.22-.58,1.78-.58c.71,0,1.28,.22,1.7,.65,.42,.44,.63,1.09,.63,1.96,0,.36-.03,.84-.1,1.43-.06,.59-.13,1.25-.21,1.96s-.14,1.46-.21,2.24c-.06,.78-.09,1.53-.09,2.26,0,.61,.02,1.17,.07,1.7,.04,.53,.14,.99,.29,1.38s.38,.7,.68,.93c.3,.23,.72,.34,1.25,.34,.45,0,.97-.06,1.55-.18s1.17-.28,1.76-.48,1.16-.41,1.69-.65c.54-.24,.98-.47,1.33-.7l-.28-.61c-.56,.2-1.11,.36-1.66,.48Z"/><path class="e" d="M141.38,58.59c-.85,0-1.54-.33-2.06-1-.52-.67-.79-1.67-.79-3,0-.84,.03-1.69,.08-2.53,.05-.85,.11-1.67,.18-2.47s.13-1.56,.18-2.29c.05-.73,.08-1.4,.08-2.01,0-.89-.11-1.68-.31-2.38-.21-.7-.54-1.3-1-1.79-.45-.49-1.04-.87-1.77-1.13-.73-.26-1.61-.39-2.63-.39-.56,0-1.16,.06-1.81,.17-.65,.12-1.3,.28-1.94,.5s-1.27,.48-1.88,.8c-.61,.31-1.14,.67-1.6,1.07s-.83,.84-1.11,1.32c-.28,.48-.42,.99-.42,1.54,0,.33,.06,.63,.18,.9,.12,.27,.29,.49,.5,.68,.21,.18,.46,.33,.75,.42,.29,.1,.6,.15,.93,.15,.57,0,1.13-.13,1.69-.39l.06-.15c-.33-.42-.58-.86-.75-1.31-.17-.45-.26-.89-.26-1.34,0-.38,.07-.73,.2-1.06,.13-.33,.35-.61,.64-.85,.3-.24,.69-.43,1.16-.57s1.06-.21,1.76-.21c.52,0,1.04,.08,1.55,.25,.52,.17,.98,.42,1.39,.76,.41,.34,.74,.78,1,1.32s.38,1.17,.38,1.9c0,.66-.02,1.26-.06,1.8-.04,.54-.1,1.11-.17,1.69-1.06,0-2.11,.06-3.13,.19-1.03,.12-2,.31-2.91,.57s-1.77,.57-2.55,.96-1.45,.84-2.01,1.36c-.56,.53-1,1.12-1.32,1.79-.32,.66-.48,1.4-.48,2.22,0,.63,.11,1.21,.33,1.74s.53,.99,.92,1.38c.4,.39,.87,.69,1.43,.91,.56,.22,1.17,.33,1.85,.33,.82,0,1.61-.19,2.35-.56,.75-.37,1.45-.86,2.11-1.47,.66-.6,1.26-1.29,1.82-2.06,.55-.77,1.04-1.55,1.46-2.35h.09c-.05,.27-.08,.52-.09,.76-.02,.24-.02,.48-.02,.72,0,.8,.11,1.51,.32,2.12s.52,1.12,.91,1.52,.86,.7,1.39,.91,1.12,.3,1.76,.3c.85,0,1.66-.16,2.43-.48,.77-.32,1.48-.79,2.14-1.41l-.43-.6c-.93,.53-1.77,.79-2.52,.79Zm-6.38-6.56c-.22,.62-.5,1.22-.83,1.78-.33,.56-.71,1.08-1.12,1.56-.42,.48-.85,.88-1.3,1.23-.45,.34-.92,.61-1.38,.8-.47,.19-.92,.29-1.36,.29-.39,0-.72-.07-1-.21-.28-.14-.51-.34-.69-.59-.18-.25-.31-.54-.4-.87-.08-.33-.12-.67-.12-1.03,0-.64,.11-1.2,.34-1.68,.22-.48,.54-.91,.93-1.26,.4-.36,.87-.65,1.41-.89s1.14-.43,1.78-.58c.64-.15,1.32-.26,2.03-.33s1.43-.11,2.15-.13c-.07,.66-.21,1.3-.43,1.92Z"/><path class="e" d="M179.44,57.53c-.56,.24-1.11,.43-1.66,.56s-1.07,.2-1.58,.2c-.35,0-.65-.05-.89-.15s-.44-.28-.59-.54c-.15-.26-.25-.62-.31-1.07-.06-.45-.1-1.04-.1-1.76,0-.41,.02-.89,.05-1.45s.08-1.15,.12-1.77c.05-.62,.1-1.25,.17-1.89,.06-.64,.12-1.25,.17-1.82s.09-1.09,.12-1.56,.05-.83,.05-1.1c0-.95-.11-1.76-.32-2.44-.21-.67-.5-1.23-.86-1.66-.36-.43-.76-.74-1.22-.94-.46-.19-.93-.29-1.42-.29-.76,0-1.55,.21-2.36,.63-.81,.42-1.62,1.12-2.42,2.1-.8,.98-1.6,2.27-2.37,3.89-.78,1.61-1.51,3.61-2.19,5.99h-.09c.05-.44,.1-.94,.17-1.5,.06-.57,.12-1.17,.18-1.8,.06-.63,.11-1.27,.15-1.93s.06-1.27,.06-1.85c0-.66-.07-1.32-.21-1.96s-.35-1.22-.64-1.72-.67-.92-1.14-1.23c-.47-.31-1.04-.47-1.71-.47-.76,0-1.55,.21-2.36,.63-.81,.42-1.62,1.12-2.42,2.1-.8,.98-1.59,2.26-2.36,3.86-.77,1.59-1.5,3.56-2.18,5.91h-.09c.14-1.33,.26-2.58,.37-3.75s.2-2.22,.27-3.13c.07-.91,.13-1.67,.17-2.28,.04-.6,.06-1,.06-1.18,0-.78-.16-1.32-.48-1.64s-.76-.48-1.33-.48c-.23,0-.56,.04-.97,.11-.41,.07-.88,.18-1.42,.32-.54,.14-1.13,.3-1.77,.49-.64,.19-1.31,.4-2,.63l.22,1c.62-.16,1.18-.28,1.67-.37s.91-.14,1.26-.14c.25,0,.47,.03,.66,.1,.19,.06,.34,.17,.46,.33,.12,.15,.21,.36,.27,.62,.06,.26,.09,.58,.09,.96,0,.42,0,.98-.02,1.7-.01,.72-.04,1.54-.07,2.45-.04,.91-.07,1.89-.12,2.94-.04,1.05-.1,2.11-.15,3.17s-.12,2.12-.19,3.15c-.07,1.03-.14,1.99-.22,2.87h.23l3.06-.35c.09-1.37,.27-2.73,.55-4.09,.28-1.36,.62-2.65,1.04-3.88s.88-2.37,1.39-3.43c.51-1.06,1.05-1.97,1.6-2.75s1.12-1.38,1.69-1.82c.57-.44,1.12-.66,1.63-.66,.59,0,1.07,.26,1.44,.79,.38,.53,.56,1.31,.56,2.34,0,.51-.02,1.15-.07,1.93-.04,.78-.1,1.72-.18,2.84-.07,1.12-.16,2.42-.25,3.92-.09,1.5-.19,3.21-.3,5.15h.23l3.06-.35c.09-1.37,.28-2.73,.56-4.09,.29-1.36,.64-2.67,1.06-3.91,.42-1.25,.89-2.4,1.41-3.47,.52-1.07,1.06-1.99,1.62-2.78s1.12-1.4,1.69-1.85c.56-.45,1.09-.67,1.59-.67,.64,0,1.15,.25,1.53,.76s.56,1.26,.56,2.26c0,.35-.03,.87-.1,1.56-.06,.69-.13,1.46-.21,2.31-.08,.85-.15,1.75-.21,2.69-.06,.94-.1,1.84-.1,2.7,0,.71,.02,1.38,.07,1.99,.04,.62,.14,1.16,.29,1.62,.15,.46,.38,.83,.68,1.09s.72,.4,1.25,.4c.45,0,.97-.07,1.55-.21,.59-.14,1.17-.33,1.77-.56,.59-.23,1.15-.48,1.69-.76s.98-.55,1.33-.82l-.28-.72Z"/><path class="f" d="M38.03,40.13c.16-1.04,.37-2.12,.61-3.21-.22,.15-.43,.32-.62,.49-.4,.38-.71,.82-.93,1.33s-.34,1.11-.34,1.78c0,.38,.04,.74,.12,1.09s.21,.65,.4,.92c.17,.25,.38,.44,.64,.58-.06-.98-.04-1.99,.12-2.99Z"/><path class="g" d="M53.86,43.5c-.93,.56-1.77,.83-2.52,.83-.85,0-1.54-.35-2.06-1.06s-.78-1.77-.78-3.17c0-.89,.03-1.78,.08-2.68s.11-1.77,.18-2.61,.13-1.65,.18-2.42,.08-1.48,.08-2.12c0-.94-.1-1.78-.31-2.52s-.54-1.37-1-1.9-1.04-.92-1.77-1.19c-.15-.06-.33-.08-.5-.13,0,.76-.09,1.85-.41,3.35,.12,.19,.24,.37,.33,.59,.25,.57,.38,1.24,.38,2.01,0,.69-.02,1.33-.07,1.9s-.1,1.17-.17,1.79c-.84,0-1.67,.05-2.49,.14-.16,.42-.34,.87-.53,1.32,.24-.04,.49-.07,.74-.1,.71-.07,1.43-.12,2.15-.14-.07,.69-.21,1.37-.43,2.03s-.5,1.29-.83,1.88-.71,1.15-1.12,1.65-.85,.94-1.3,1.3c-.23,.18-.46,.34-.69,.49-.06,.73-.1,1.52-.13,2.38,.41-.29,.81-.61,1.2-.98,.66-.64,1.26-1.37,1.82-2.18s1.04-1.64,1.46-2.48h.09c-.05,.28-.08,.55-.1,.81s-.02,.51-.02,.76c0,.85,.11,1.6,.32,2.24s.52,1.18,.91,1.6,.85,.74,1.39,.96,1.12,.32,1.76,.32c.85,0,1.66-.17,2.43-.51s1.48-.84,2.14-1.49l-.42-.63Z"/><path class="g" d="M37.27,42.54c-.18-.26-.31-.57-.4-.92s-.12-.71-.12-1.09c0-.67,.11-1.27,.34-1.78s.53-.96,.93-1.33c.19-.18,.4-.34,.62-.49,.14-.61,.28-1.22,.43-1.83-.77,.25-1.49,.53-2.16,.88-.78,.41-1.45,.89-2.01,1.44s-1,1.19-1.32,1.89-.48,1.48-.48,2.34c0,.66,.11,1.28,.33,1.84s.53,1.05,.92,1.46,.87,.73,1.43,.97,1.17,.35,1.85,.35c.24,0,.48-.02,.72-.06-.23-.98-.38-2.02-.44-3.08-.25-.15-.47-.34-.64-.58Z"/><path class="g" d="M42.41,24.29c-.29,.03-.59,.07-.9,.13-.65,.12-1.3,.3-1.94,.53s-1.27,.51-1.88,.84-1.14,.71-1.6,1.13-.83,.88-1.11,1.39-.42,1.05-.42,1.63c0,.35,.06,.67,.18,.95s.29,.52,.5,.72,.46,.34,.75,.45,.6,.15,.93,.15c.57,0,1.13-.14,1.68-.41l.06-.16c-.33-.45-.58-.91-.75-1.38s-.26-.94-.26-1.41c0-.4,.07-.77,.2-1.12s.35-.65,.64-.9,.69-.45,1.16-.6,1.06-.22,1.76-.22c.13,0,.26,.02,.39,.03,.29-.84,.48-1.34,.48-1.34,0,0,.05-.15,.12-.4Z"/><path class="c" d="M45.45,24.53c0-1.11-.22-1.53-.22-1.53-.44-6.78-2.94-11.47-2.94-11.47,1.89,5.62,.54,11.26,.12,12.77,.31-.03,.62-.05,.91-.05,.81,0,1.51,.11,2.13,.28Z"/><path class="c" d="M42.38,34.36c.21-.03,.43-.04,.65-.06,1.04-2.7,1.66-4.8,2.01-6.42-.19-.3-.41-.58-.66-.81-.41-.36-.87-.63-1.39-.81-.39-.13-.78-.2-1.17-.23-.64,1.85-1.81,5.36-2.74,9.06,.13-.04,.25-.09,.39-.13,.92-.27,1.89-.47,2.92-.6Z"/><path class="c" d="M38.35,46.2c.97,4.16,3.06,7.31,3.06,7.31-.46-3.2-.58-6.03-.51-8.42-.3,.21-.6,.41-.91,.57-.53,.28-1.07,.45-1.63,.54Z"/><path class="c" d="M39.43,36.47c-.29,.13-.55,.28-.79,.45-.24,1.09-.46,2.17-.61,3.21-.15,1.01-.18,2.01-.12,2.99,.02,.01,.03,.03,.05,.04,.28,.15,.61,.23,1,.23,.44,0,.89-.1,1.36-.31,.23-.1,.46-.22,.69-.36,.3-3.74,.98-5.88,.98-5.88,.18-.43,.34-.82,.5-1.22-.44,.07-.88,.14-1.29,.24-.64,.16-1.23,.36-1.78,.62Z"/><path class="c" d="M39.43,36.47c.55-.25,1.14-.46,1.78-.62,.41-.1,.84-.18,1.29-.24,.19-.45,.36-.9,.53-1.32-.22,.02-.44,.03-.65,.06-1.03,.13-2,.33-2.92,.6-.13,.04-.26,.09-.39,.13-.15,.61-.3,1.22-.43,1.83,.24-.17,.51-.32,.79-.45Z"/><path class="c" d="M40.33,43.08c-.47,.21-.92,.31-1.36,.31-.39,0-.73-.08-1-.23-.02-.01-.03-.03-.05-.04,.06,1.06,.22,2.1,.44,3.08,.56-.08,1.11-.26,1.63-.54,.31-.17,.61-.37,.91-.57,.02-.85,.07-1.64,.13-2.38-.23,.14-.46,.26-.69,.36Z"/><path class="g" d="M44.37,27.07c.25,.22,.47,.5,.66,.81,.32-1.5,.42-2.59,.41-3.35-.63-.17-1.32-.28-2.13-.28-.29,0-.59,.02-.91,.05-.07,.25-.12,.4-.12,.4,0,0-.19,.5-.48,1.34,.39,.03,.78,.1,1.17,.23,.52,.18,.98,.44,1.39,.81Z"/><path class="c" d="M40.96,18.39s-1.95-2.91-1.5-5.86,1.89-6.76,1.89-6.76c0,0,.98-2.9,0-5.77,0,0,1.11,2.05,1.3,5.02,0,0,.65,1.26-1.43,6.06,0,0-.91,2.84-.26,7.31Z"/><path class="g" d="M87.53,51.43c-.55,.14-1.07,.21-1.58,.21-.35,0-.65-.05-.89-.15s-.44-.29-.59-.57-.25-.66-.31-1.14c-.06-.48-.1-1.1-.1-1.86,0-.43,.02-.94,.05-1.53s.08-1.21,.12-1.87,.1-1.32,.17-2,.12-1.32,.17-1.93,.09-1.15,.12-1.65,.05-.88,.05-1.16c0-1.01-.11-1.87-.32-2.58s-.5-1.3-.86-1.75c-.36-.45-.76-.78-1.22-.99s-.93-.31-1.42-.31c-.76,0-1.55,.22-2.36,.67s-1.62,1.18-2.42,2.22-1.6,2.4-2.37,4.11-1.51,3.82-2.19,6.34h-.09c.05-.46,.1-.99,.17-1.59s.12-1.24,.18-1.9,.11-1.35,.15-2.04,.06-1.34,.06-1.96c0-.7-.07-1.39-.21-2.07s-.35-1.29-.64-1.82-.67-.97-1.14-1.3-1.04-.5-1.71-.5c-.76,0-1.55,.22-2.36,.67s-1.62,1.18-2.42,2.22-1.59,2.4-2.36,4.08-1.5,3.77-2.18,6.25h-.09c.14-1.41,.26-2.73,.37-3.97s.2-2.34,.27-3.31,.13-1.77,.17-2.41,.06-1.06,.06-1.25c0-.82-.16-1.4-.48-1.74s-.76-.51-1.33-.51c-.23,0-.56,.04-.97,.12s-.88,.19-1.42,.34-1.13,.32-1.77,.52-1.31,.42-2,.67l.22,1.05c.62-.17,1.18-.3,1.67-.4s.91-.15,1.26-.15c.25,0,.47,.03,.66,.1s.34,.18,.46,.34,.21,.38,.27,.65,.09,.61,.09,1.01c0,.44,0,1.04-.02,1.8s-.04,1.62-.07,2.59-.07,2-.12,3.11-.1,2.23-.15,3.35-.12,2.24-.19,3.33-.14,2.1-.22,3.03h.23l3.06-.37c.09-1.45,.27-2.89,.55-4.32s.62-2.8,1.04-4.1,.88-2.51,1.39-3.63,1.05-2.09,1.6-2.91,1.12-1.46,1.69-1.93,1.12-.7,1.63-.7c.59,0,1.07,.28,1.44,.83s.56,1.38,.56,2.48c0,.54-.02,1.22-.07,2.04s-.1,1.82-.18,3-.16,2.56-.25,4.15-.19,3.4-.3,5.45h.23l3.06-.37c.09-1.45,.28-2.89,.56-4.33s.64-2.82,1.06-4.14,.89-2.54,1.41-3.67,1.06-2.11,1.63-2.94,1.12-1.48,1.68-1.96c.56-.47,1.09-.71,1.59-.71,.64,0,1.15,.27,1.53,.8s.56,1.33,.56,2.4c0,.37-.03,.92-.1,1.65s-.13,1.54-.21,2.44-.15,1.85-.21,2.84c-.06,1-.1,1.95-.1,2.86,0,.75,.02,1.46,.07,2.11,.04,.65,.14,1.23,.29,1.71,.15,.49,.38,.87,.68,1.16s.72,.42,1.25,.42c.45,0,.97-.08,1.55-.23s1.17-.35,1.77-.59c.59-.24,1.15-.51,1.69-.81s.98-.58,1.33-.86l-.28-.76c-.56,.25-1.11,.45-1.66,.59Z"/><text class="d" transform="translate(104.66 34.9)"><tspan x="0" y="0">Bakery </tspan></text></g><g id="b"/></svg>